<svg xmlns="http://www.w3.org/2000/svg" viewBox="0 0 950 130">
  <title id="ARm-wordmark">At Risk Media wordmark</title>
    <path style="fill:#000;stroke-width:.282224" d="M37.59 32.268c-1.605-.598-2.46-1.314-3.26-2.726-.678-1.198-.709-1.47-.805-7.101l-.1-5.857h-3.612v-2.258h3.669V8.119h2.822v6.209h7.62V16.584h-7.62v5.372c0 5.999.212 6.986 1.657 7.733 1.218.63 3.49.564 4.873-.142.63-.321 1.18-.544 1.223-.494.043.05.281.49.53.98.503.99.439 1.094-1.178 1.916-1.316.668-4.424.84-5.818.32zm59.815.025c-1.908-.496-4.092-1.496-4.092-1.874 0-.245.437-1.071 1.026-1.94.037-.055.773.245 1.636.667 1.69.827 4.411 1.203 6.233.862 1.446-.272 2.394-1.284 2.394-2.559 0-1.398-1.011-2.26-3.499-2.978-4.715-1.362-6.35-2.41-6.966-4.464-1.072-3.579 2.509-6.58 7.346-6.155 1.953.171 4.028.79 4.93 1.468.532.4.532.425.006 1.4-.294.547-.593.993-.664.993-.07 0-.708-.285-1.417-.635-1.036-.51-1.768-.635-3.735-.635-2.201 0-2.52.069-3.175.684-.942.885-.96 2.092-.046 2.94.39.36 2.113 1.076 4.022 1.668 3.926 1.217 5.27 2.142 5.76 3.96 1.025 3.81-1.528 6.629-6.21 6.86-1.206.059-2.753-.055-3.549-.262zm85.862.089c-2.855-.721-5.133-2.583-6.287-5.14-1.638-3.627-.827-8.182 1.939-10.889 2.944-2.882 7.653-3.375 11.01-1.152 2.209 1.464 3.392 3.722 3.743 7.142l.19 1.861H178.765l.174.693c.845 3.367 3.428 5.27 7.154 5.27 1.507 0 2.182-.163 3.575-.861l1.717-.86.634.772c.348.424.598.899.554 1.054-.043.155-.918.706-1.944 1.224-1.534.775-2.257.96-4.082 1.048-1.22.059-2.695-.014-3.28-.162zm7.689-11.07c-.01-.956-.949-2.797-1.863-3.651-1.087-1.015-2.09-1.359-3.967-1.359-2.76 0-5.218 1.892-5.962 4.586l-.292 1.059h12.09l-.006-.635zm12.488 10.962c-2.447-.799-4.885-3.329-5.738-5.953-.497-1.528-.423-5.077.136-6.593 1.431-3.876 5.047-6.242 8.99-5.885 1.983.18 4.42 1.3 5.425 2.495l.718.854V4.166h2.823v28.222h-2.54V29.17l-1.059 1.032c-2.108 2.054-5.994 2.974-8.755 2.073zm5.348-2.579c2.668-.909 4.171-3.244 4.171-6.478 0-2.31-.573-3.783-2-5.139-3.135-2.978-8.086-1.991-10.201 2.034-.44.835-.594 1.643-.594 3.105 0 2.267.579 3.65 2.164 5.171 1.728 1.66 4.048 2.129 6.46 1.307zm27.672 2.579c-2.447-.799-4.885-3.329-5.738-5.953-.497-1.528-.423-5.077.136-6.593 2.24-6.063 9.826-7.91 14.357-3.496l1.059 1.031v-2.936h2.54V32.389h-2.54v-3.22l-1.059 1.032c-2.108 2.054-5.994 2.974-8.755 2.073zm5.348-2.579c2.668-.909 4.171-3.244 4.171-6.478 0-2.31-.573-3.783-2-5.139-3.135-2.978-8.086-1.991-10.201 2.034-.44.835-.594 1.643-.594 3.105 0 2.267.579 3.65 2.164 5.171 1.728 1.66 4.048 2.129 6.46 1.307zM4.284 30.766c.386-.892 3.02-7.084 5.853-13.758L15.29 4.872h2.503l5.727 13.547c3.15 7.45 5.727 13.648 5.728 13.773.001.124-.64.188-1.425.141l-1.426-.085-1.284-3.039-1.284-3.038-7.353.075-7.353.075-1.261 3.034L6.6 32.389H3.583zm18.427-7.365c-1.503-3.813-6.056-14.437-6.188-14.437-.16 0-6.183 14.157-6.183 14.532 0 .08 2.804.144 6.232.144 3.428 0 6.19-.108 6.139-.239zm37.018-4.869V4.676l6.138.116c6.927.13 8.193.417 10.476 2.372 2.488 2.129 3.513 6.18 2.47 9.765-.556 1.914-2.45 4.137-4.277 5.022l-1.266.613 2.166 3.149a593.986 593.986 0 0 0 3.414 4.912l1.248 1.764-1.788-.006-1.79-.006-3.085-4.51-3.085-4.51h-7.8v9.032H59.73zm12.478 1.627c1.512-.677 3.054-2.127 3.646-3.431.694-1.526.668-3.897-.06-5.5-.754-1.665-1.248-2.178-2.941-3.059-1.308-.68-1.734-.742-5.856-.846l-4.445-.111v13.666l4.304-.125c3.185-.093 4.576-.248 5.352-.594zm13.204 3.199v-9.031h2.822V32.389h-2.822zm27.093-5.08V4.166h2.815l.074 8.87.075 8.87 4.435-3.803 4.436-3.803 1.825.084 1.825.084-4.779 4.06c-2.628 2.233-4.78 4.153-4.78 4.267 0 .114 2.065 2.086 4.587 4.384 2.522 2.297 4.837 4.409 5.143 4.693.543.505.51.517-1.45.517h-2.006l-4.618-4.127-4.618-4.128-.079 4.128-.078 4.127h-2.807zm30.106 12.065c.253-4.92.939-22.428.939-23.96V4.696l1.055.087 1.056.088 5.246 9.552c2.885 5.253 5.363 9.56 5.506 9.569.143.01 2.729-4.32 5.746-9.622 5.415-9.515 5.497-9.64 6.39-9.64h.903l.174 3.316c.097 1.824.3 6.872.452 11.218.152 4.347.35 9.077.438 10.513l.161 2.61H167.9l-.178-3.315c-.098-1.824-.262-6.591-.365-10.593-.103-4.003-.266-7.326-.362-7.385-.096-.06-2.271 3.66-4.834 8.265l-4.66 8.372-1.015.086-1.014.085-4.655-8.636-4.654-8.635-.173 3.329a475.463 475.463 0 0 0-.325 8.55c-.084 2.872-.225 6.269-.313 7.55l-.16 2.328H142.504zm79.679-6.985v-9.031h2.822V32.389h-2.822zM85.257 9.965c-.381-.381-.693-1.022-.693-1.424 0-.982 1.176-2.117 2.192-2.117 1.912 0 2.792 2.474 1.298 3.649-.986.776-1.95.739-2.797-.108zm136.878 0c-.381-.381-.693-1.022-.693-1.424 0-.982 1.175-2.117 2.192-2.117 1.912 0 2.792 2.474 1.298 3.649-.987.776-1.95.739-2.797-.108z" transform="matrix(3.66995 0 0 3.66995 3.789 1.095)"/>
</svg>
